<?xml version="1.0" encoding="utf-8" standalone="no" ?><svg xmlns="http://www.w3.org/2000/svg" enable-background="new 0 0 499.524 554.546" height="554.546" id="Layer_1" overflow="visible" version="1.1" viewBox="0 0 499.524 554.546" width="499.524" xml:space="preserve" xmlns:xlink="http://www.w3.org/1999/xlink">  <g>			  <path clip-rule="evenodd" d="   M25.824,200.612c0.166-0.273,0.342-0.542,0.518-0.806c28.447-43.799,73.32-69.434,115.518-69.434   c42.969,0,69.98,23.555,105.498,23.555c34.463,0,55.454-23.589,105.132-23.589c37.534,0,77.329,20.439,105.674,55.781   c-7.837,4.292-14.907,9.165-21.226,14.521L25.824,200.612L25.824,200.612z" fill="#61BB46" fill-rule="evenodd" stroke="#61BB46" stroke-miterlimit="2.6131" stroke-width="2.9849"/>			  <path clip-rule="evenodd" d="   M314.808,90.875c18.032-23.159,31.748-55.859,26.777-89.292c-29.482,2.021-63.965,20.791-84.106,45.225   c-18.276,22.197-33.364,55.117-27.49,87.095C262.176,134.904,295.472,115.685,314.808,90.875L314.808,90.875z" fill="#61BB46" fill-rule="evenodd" stroke="#61BB46" stroke-miterlimit="2.6131" stroke-width="2.9849"/>			  <path clip-rule="evenodd" d="   M25.824,200.612C13.685,219.63,5.951,243.712,2.928,270.797l394.341-0.01c4.258-26.157,17.227-51.147,39.668-70.146L25.824,200.612   L25.824,200.612z" fill="#FDB827" fill-rule="evenodd" stroke="#FDB827" stroke-miterlimit="2.6131" stroke-width="2.9849"/>			  <path clip-rule="evenodd" d="   M4.989,340.998c-3.862-24.644-4.487-48.403-2.061-70.2l394.341-0.01c-3.857,23.638-0.62,48.237,9.136,70.225L4.989,340.998   L4.989,340.998z" fill="#F5821F" fill-rule="evenodd" stroke="#F5821F" stroke-miterlimit="2.6131" stroke-width="2.9849"/>			  <path clip-rule="evenodd" d="   M24.261,411.193c-9.312-23.584-15.688-47.271-19.272-70.195l401.416,0.015c12.427,28.018,35.425,51.821,67.808,64.053   c-0.962,2.139-1.89,4.185-2.783,6.157L24.261,411.193L24.261,411.193z" fill="#E03A3E" fill-rule="evenodd" stroke="#E03A3E" stroke-miterlimit="2.6131" stroke-width="2.9849"/>			  <path clip-rule="evenodd" d="   M471.429,411.222c-11.118,24.443-17.563,37.129-32.949,60.547c-2.07,3.145-4.209,6.362-6.436,9.609l-370.527,0.034   c-1.187-1.768-2.363-3.535-3.521-5.288c-13.853-21.099-25.068-42.974-33.735-64.932L471.429,411.222L471.429,411.222z" fill="#963D97" fill-rule="evenodd" stroke="#963D97" stroke-miterlimit="2.6131" stroke-width="2.9849"/>	  <path d="M472.972,552.599   c13.589,0,24.604-11.016,24.604-24.595c0-13.589-11.016-24.6-24.604-24.6s-24.604,11.011-24.604,24.6   C448.368,541.583,459.383,552.599,472.972,552.599 M465.98,542.951v-27.485h11.011 M483.636,542.648l-6.553-13.892    M466.029,528.512h11.006 M477.025,528.478c2.734,0,5.503-2.891,5.503-6.46c0-3.799-2.886-6.553-5.537-6.553" fill="none" stroke="#000000" stroke-miterlimit="2.6131" stroke-width="3.8948"/>			  <path clip-rule="evenodd" d="   M432.044,481.378c-22.666,33.203-53.096,69.741-90.02,70.088c-36.03,0.327-45.273-23.447-94.155-23.179   c-48.882,0.273-59.087,23.594-95.117,23.257c-38.521-0.356-68.433-36.24-91.235-70.132L432.044,481.378L432.044,481.378z" fill="#009DDC" fill-rule="evenodd" stroke="#009DDC" stroke-miterlimit="2.6131" stroke-width="2.9849"/></g></svg>